<svg width="16" height="16" viewBox="0 0 16 16" fill="none" xmlns="http://www.w3.org/2000/svg">
<path fill-rule="evenodd" clip-rule="evenodd" d="M8 15.4424L8.43849 15.0595C12.1258 11.8399 14 9.02855 14 6.55737C14 3.05782 11.2686 0.557373 8 0.557373C4.73137 0.557373 2 3.05782 2 6.55737C2 9.02855 3.87421 11.8399 7.56151 15.0595L8 15.4424ZM8 13.6663C4.87107 10.8464 3.33333 8.45687 3.33333 6.55738C3.33333 3.82178 5.44274 1.89072 8 1.89072C10.5573 1.89072 12.6667 3.82178 12.6667 6.55738C12.6667 8.45687 11.1289 10.8464 8 13.6663ZM8 3.22403C9.84095 3.22403 11.3333 4.71641 11.3333 6.55736C11.3333 8.39831 9.84095 9.89069 8 9.89069C6.15905 9.89069 4.66667 8.39831 4.66667 6.55736C4.66667 4.71641 6.15905 3.22403 8 3.22403ZM6 6.55737C6 5.4528 6.89543 4.55737 8 4.55737C9.10457 4.55737 10 5.4528 10 6.55737C10 7.66194 9.10457 8.55737 8 8.55737C6.89543 8.55737 6 7.66194 6 6.55737Z" fill="#BEA4E1"/>
</svg>
